Coordinates
version=1
nRows=9
nColumns=36
inDegrees=yes

Units are S.I. units (second, meters, Newtons, ...)
If the header above contains a line with 'inDegrees', this indicates whether rotational values are in degrees (yes) or radians (no).

endheader
time	pelvis_tilt	pelvis_list	pelvis_rotation	pelvis_tx	pelvis_ty	pelvis_tz	hip_flexion_r	hip_adduction_r	hip_rotation_r	knee_angle_r	knee_angle_r_beta	ankle_angle_r	subtalar_angle_r	mtp_angle_r	hip_flexion_l	hip_adduction_l	hip_rotation_l	knee_angle_l	knee_angle_l_beta	ankle_angle_l	subtalar_angle_l	mtp_angle_l	lumbar_extension	lumbar_bending	lumbar_rotation	arm_flex_r	arm_add_r	arm_rot_r	elbow_flex_r	pro_sup_r	arm_flex_l	arm_add_l	arm_rot_l	elbow_flex_l	pro_sup_l
     44.70000000	      0.05729892	      0.45331371	    181.18013690	      0.70131980	      1.07662695	      0.77321555	     22.89199610	     -2.60065683	     -3.00061006	     28.30037295	      0.49393469	     -5.76228949	     -4.98876664	     -7.49999987	     -1.84321818	      1.09009815	      7.13518190	     10.24132564	      0.17874485	      2.59597732	     -4.32511449	     -7.49999987	    -15.29090930	     -0.56778484	     -2.99607414	      4.54641153	    -11.29668674	     -0.28028708	     28.02562851	    102.29567162	     19.86359054	    -15.02333836	      2.47326677	     27.03904409	    103.26892680
     44.71666670	      0.35842928	     -0.05146267	    181.32406641	      0.70174529	      1.07502032	      0.77145592	     21.78769814	     -3.00617748	     -2.72526506	     21.64402895	      0.37775957	     -6.85419542	     -3.36764451	     -7.49999987	     -2.40697345	      1.55294982	      6.76039977	     10.31094998	      0.17996003	      3.27275241	     -3.69191463	     -7.49999987	    -14.82217443	     -1.05679592	     -3.36369680	      4.10955935	    -11.00050948	     -1.23975724	     27.82088344	    102.49170817	     19.63099483	    -15.31514171	      2.16633074	     27.47329932	    102.89351171
     44.73333330	      0.66751127	     -0.62108356	    181.52026572	      0.70292499	      1.07421019	      0.76920663	     20.79442954	     -3.50146123	     -2.32869428	     15.83997949	      0.27645980	     -7.66171138	     -1.35469244	     -7.49999987	     -2.96508596	      2.08008119	      6.59529973	     10.33630928	      0.18040263	      3.83538310	     -3.37060912	     -7.49999987	    -14.43451039	     -1.62320460	     -3.70995130	      3.81121686	    -10.71297467	     -1.91236980	     27.62525606	    101.88431163	     19.64813050	    -15.63769723	      2.14452796	     27.66364902	    101.93742878
     44.75000000	      0.89936544	     -1.12032983	    181.64382544	      0.70372040	      1.07324924	      0.76726641	     19.90253154	     -3.87474544	     -1.74384648	     11.10123946	      0.19375318	     -8.07745842	      0.75640308	     -7.49999987	     -3.66395300	      2.52973752	      6.50138493	     10.33620500	      0.18040081	      4.44580409	     -3.32189021	     -7.49999987	    -14.11294874	     -2.14864345	     -3.90593207	      3.64292430	    -10.54734358	     -2.49299534	     27.45154801	    101.66930984	     19.67483850	    -15.97910570	      2.23899851	     27.87601945	    101.43690880
     44.76666670	      1.04557130	     -1.43436293	    181.68948103	      0.70331108	      1.07140954	      0.76580121	     18.99722242	     -3.95846111	     -0.83004381	      7.50786477	      0.13103696	     -8.04329129	      2.83041286	     -7.49999987	     -4.38390139	      2.76960934	      6.30976495	     10.50650519	      0.18337311	      5.14584111	     -3.27689057	     -7.49999987	    -13.87184825	     -2.49740222	     -3.72291033	      3.66229479	    -10.50294497	     -2.81184367	     27.03721696	    101.78664387	     19.90278917	    -15.93681469	      2.24530580	     27.93493922	    101.52026272
     44.78333330	      0.99481288	     -1.55034717	    181.64968355	      0.70155029	      1.06821659	      0.76415426	     17.95935748	     -3.74872084	      0.29936608	      5.09309137	      0.08889121	     -7.59250391	      4.57029345	     -7.49999987	     -5.15668836	      2.80923866	      5.98991376	     11.00332456	      0.19204424	      5.84684254	     -3.37183687	     -7.49999987	    -13.76915500	     -2.63351511	     -3.36795125	      3.84446757	    -10.57353157	     -3.20652633	     26.34633634	    102.01274009	     20.21242286	    -15.77521793	      2.29784076	     27.78068733	    101.72357946
     44.80000000	      0.96048606	     -1.57096510	    181.53424887	      0.69972530	      1.06339890	      0.76179688	     17.16171765	     -3.40339999	      1.52502032	      3.71909626	      0.06491047	     -6.80845806	      5.73693503	     -7.49999987	     -5.67838163	      2.74351431	      5.50485245	     12.00286091	      0.20948944	      6.47854501	     -3.42089770	     -7.49999987	    -13.63560581	     -2.66324054	     -2.85587221	      4.05779666	    -10.68509667	     -3.64189487	     25.48116643	    101.99395784	     20.76588344	    -15.56566443	      2.98991802	     27.04224868	    101.51103590
     44.81666670	      0.90699765	     -1.55801459	    181.39366939	      0.69966909	      1.05740671	      0.75917441	     16.63051100	     -3.02757352	      2.57811162	      3.16560481	      0.05525023	     -6.08208808	      5.96026791	     -7.49999987	     -5.95605834	      2.60136294	      4.91226956	     13.63920377	      0.23804901	      7.04397801	     -3.40822025	     -7.49999987	    -13.69448028	     -2.62434240	     -2.36425076	      4.05508043	    -10.84593364	     -4.07658345	     25.36908111	    102.07098435	     20.98423651	    -15.43672741	      3.31629201	     27.22363553	    101.28671881
     44.83333330	      0.97365370	     -1.58655915	    181.24044264	      0.70149770	      1.05251147	      0.75700933	     16.57067163	     -2.69642255	      3.26539676	      3.31278377	      0.05781898	     -5.65006150	      5.41828909	     -7.49999987	     -5.75472354	      2.44472716	      4.15395275	     16.07413889	      0.28054665	      7.46081456	     -3.29607646	     -7.49999987	    -13.69486512	     -2.59763636	     -2.08924856	      4.31186482	    -10.87194759	     -5.13773982	     25.18440223	    103.69055311	     21.06928833	    -15.28182330	      2.51969544	     27.48625245	    102.58591390
